<svg xmlns="http://www.w3.org/2000/svg" width="246" height="54.146" viewBox="0 0 246 54.146">
  <g id="orion-full-logo-white" transform="translate(123 27.073)">
    <g id="orion-full-logo-white-2" data-name="orion-full-logo-white" transform="translate(-123 -27.073)">
      <g id="Layer_1" data-name="Layer 1">
        <path id="Path_501" data-name="Path 501" d="M95.15,40.411v8.275l.177-.164a17.233,17.233,0,0,1,11.366-4.4V37.38A24.013,24.013,0,0,0,95.15,40.411Z" transform="translate(-79.558 -31.27)" fill="#fff" opacity="0.2"/>
        <path id="Path_502" data-name="Path 502" d="M44.528,13.421a23.818,23.818,0,0,0-15.5-7.1h-.067c-.215-.013-.43-.025-.647-.033h-.466V.553a.428.428,0,0,0-.855,0V29.847H16.063V5.036a.428.428,0,0,0-.855,0V29.847H10.092a.428.428,0,1,0,0,.855h5.116V35.86H4.962a23.089,23.089,0,0,1,2.4-17.153.428.428,0,0,0-.74-.428A23.962,23.962,0,0,0,4.08,35.86H.553a.428.428,0,0,0,0,.855H4.3a24.189,24.189,0,0,0,5.851,10.227l-.01.01.3.3A24.127,24.127,0,0,0,15.991,51.4l.072.041h0a23.854,23.854,0,0,0,11.359,2.843h.492A24.013,24.013,0,0,0,44.528,13.421Zm-16.664-.4a17.259,17.259,0,1,1-11.8,30.24V36.715H27v1.805a.428.428,0,1,0,.855,0V36.715h2.05a.428.428,0,0,0,0-.855H27.864V30.7h5.352a.428.428,0,0,0,0-.855H27.864ZM16.063,30.7H27V35.86H16.063ZM15.208,42.46a17.355,17.355,0,0,1-3.8-5.744h3.8Zm-4.715-5.744a18.208,18.208,0,0,0,4.715,6.929v6.3A23.267,23.267,0,0,1,5.2,36.715Z" transform="translate(-0.151 -0.152)" fill="#fff"/>
        <g id="Group_26" data-name="Group 26" transform="translate(67.058 43.042)" opacity="0.4">
          <path id="Path_503" data-name="Path 503" d="M416.721,265.008a2.954,2.954,0,0,0-1.132-.894,3.385,3.385,0,0,0-1.416-.313,3.775,3.775,0,0,0-1.618.336,3.716,3.716,0,0,0-1.238.916,4.191,4.191,0,0,0-.8,1.364,4.9,4.9,0,0,0-.284,1.677,4.627,4.627,0,0,0,.269,1.581,3.939,3.939,0,0,0,.776,1.313,3.586,3.586,0,0,0,1.236.894,3.983,3.983,0,0,0,1.656.328,3.283,3.283,0,0,0,1.6-.374,3.431,3.431,0,0,0,1.162-1.042l1.208.908a4.443,4.443,0,0,1-.417.471,4.246,4.246,0,0,1-.791.611,5.415,5.415,0,0,1-1.185.537,5.059,5.059,0,0,1-1.6.231,5.207,5.207,0,0,1-2.252-.486,5.533,5.533,0,0,1-3.163-4.973,6.206,6.206,0,0,1,.391-2.263,5.349,5.349,0,0,1,1.126-1.789,5.014,5.014,0,0,1,1.736-1.165,5.809,5.809,0,0,1,2.237-.417,5.46,5.46,0,0,1,2.05.4,3.827,3.827,0,0,1,1.641,1.238Z" transform="translate(-408.726 -262.448)" fill="#fff"/>
          <path id="Path_504" data-name="Path 504" d="M512.631,273.5a5.681,5.681,0,0,1-2.222-.425,5.2,5.2,0,0,1-1.736-1.17,5.387,5.387,0,0,1-1.132-1.759,6.055,6.055,0,0,1,0-4.382,5.37,5.37,0,0,1,1.132-1.759,5.17,5.17,0,0,1,1.736-1.172,6.017,6.017,0,0,1,4.443,0,5.16,5.16,0,0,1,1.738,1.17,5.4,5.4,0,0,1,1.133,1.759,6.055,6.055,0,0,1,0,4.382,5.417,5.417,0,0,1-1.133,1.759,5.185,5.185,0,0,1-1.738,1.17A5.679,5.679,0,0,1,512.631,273.5Zm0-1.341a3.846,3.846,0,0,0,2.892-1.238,3.986,3.986,0,0,0,.8-1.334,4.839,4.839,0,0,0,0-3.266,3.926,3.926,0,0,0-7.394,0,4.838,4.838,0,0,0,0,3.266,3.962,3.962,0,0,0,.806,1.334,3.841,3.841,0,0,0,1.252.9A3.884,3.884,0,0,0,512.631,272.162Z" transform="translate(-490.979 -262.408)" fill="#fff"/>
          <path id="Path_505" data-name="Path 505" d="M621.22,264.05H623.1l5.813,8.677h.031V264.05h1.431v10.557h-1.82l-5.872-8.679h-.031v8.679H621.22Z" transform="translate(-586.344 -263.779)" fill="#fff"/>
          <path id="Path_506" data-name="Path 506" d="M724.049,271.019a2.344,2.344,0,0,0,.985.858,2.964,2.964,0,0,0,1.244.276,2.511,2.511,0,0,0,.73-.113,2.225,2.225,0,0,0,.679-.328,1.843,1.843,0,0,0,.492-.551,1.477,1.477,0,0,0,.194-.762,1.139,1.139,0,0,0-.387-.931,3.38,3.38,0,0,0-.962-.537q-.573-.217-1.252-.417a5.112,5.112,0,0,1-1.252-.56,3.056,3.056,0,0,1-.962-.962,3.011,3.011,0,0,1-.389-1.641,2.815,2.815,0,0,1,.835-1.938,3.51,3.51,0,0,1,1.111-.722,4.1,4.1,0,0,1,1.641-.29,5.689,5.689,0,0,1,1.654.238,2.849,2.849,0,0,1,1.387.968l-1.164,1.059a1.932,1.932,0,0,0-.76-.67,2.406,2.406,0,0,0-1.118-.254,2.7,2.7,0,0,0-.985.164,1.774,1.774,0,0,0-.634.4,1.452,1.452,0,0,0-.328.529,1.643,1.643,0,0,0-.1.522,1.334,1.334,0,0,0,.387,1.029,3.009,3.009,0,0,0,.962.581,11.828,11.828,0,0,0,1.252.4,5.308,5.308,0,0,1,1.252.492,2.905,2.905,0,0,1,.962.865,2.545,2.545,0,0,1,.389,1.5,3.151,3.151,0,0,1-.292,1.372,3.022,3.022,0,0,1-.783,1.029,3.473,3.473,0,0,1-1.162.642,4.546,4.546,0,0,1-1.431.223,5.22,5.22,0,0,1-1.924-.358,3.157,3.157,0,0,1-1.446-1.1Z" transform="translate(-671.319 -262.399)" fill="#fff"/>
          <path id="Path_507" data-name="Path 507" d="M809.209,265.391h-3.4V264.05h8.238v1.341H810.64v9.216h-1.431Z" transform="translate(-740.638 -263.779)" fill="#fff"/>
          <path id="Path_508" data-name="Path 508" d="M899.74,264.038h3.711a4.349,4.349,0,0,1,1.671.276,2.849,2.849,0,0,1,1.036.7,2.379,2.379,0,0,1,.529.955,3.735,3.735,0,0,1,.154,1.014,2.712,2.712,0,0,1-.181.977,2.754,2.754,0,0,1-.514.85,2.942,2.942,0,0,1-.821.64,2.838,2.838,0,0,1-1.08.32l3,4.817h-1.794l-2.683-4.65h-1.6v4.653h-1.43Zm1.43,4.651h1.879a5.144,5.144,0,0,0,.821-.067,2.228,2.228,0,0,0,.73-.245,1.35,1.35,0,0,0,.515-.515,2.061,2.061,0,0,0,0-1.745,1.347,1.347,0,0,0-.515-.514,2.193,2.193,0,0,0-.73-.246,5.148,5.148,0,0,0-.821-.067H901.17Z" transform="translate(-819.152 -263.767)" fill="#fff"/>
          <path id="Path_509" data-name="Path 509" d="M990.007,264.05v6.471a4.12,4.12,0,0,0,.135,1.021,2.984,2.984,0,0,0,.448.977,2.414,2.414,0,0,0,.821.73,2.9,2.9,0,0,0,2.5,0,2.421,2.421,0,0,0,.821-.73,2.984,2.984,0,0,0,.448-.977,4.2,4.2,0,0,0,.133-1.021V264.05h1.431v6.695a4.3,4.3,0,0,1-.314,1.677,3.939,3.939,0,0,1-.863,1.3,3.8,3.8,0,0,1-1.3.85,4.494,4.494,0,0,1-3.222,0,3.787,3.787,0,0,1-1.3-.85,3.978,3.978,0,0,1-.865-1.3,4.332,4.332,0,0,1-.313-1.677V264.05Z" transform="translate(-893.409 -263.779)" fill="#fff"/>
          <path id="Path_510" data-name="Path 510" d="M1092.25,265.05a2.954,2.954,0,0,0-1.132-.894,3.387,3.387,0,0,0-1.417-.314,3.776,3.776,0,0,0-1.618.336,3.716,3.716,0,0,0-1.237.916,4.193,4.193,0,0,0-.8,1.364,4.9,4.9,0,0,0-.284,1.677,4.626,4.626,0,0,0,.269,1.581,3.939,3.939,0,0,0,.775,1.313,3.61,3.61,0,0,0,1.237.895,3.983,3.983,0,0,0,1.656.328,3.282,3.282,0,0,0,1.6-.374,3.43,3.43,0,0,0,1.162-1.042l1.208.908a4.652,4.652,0,0,1-.417.471,4.246,4.246,0,0,1-.791.611,5.459,5.459,0,0,1-1.185.537,5.065,5.065,0,0,1-1.6.231,5.2,5.2,0,0,1-2.258-.478,5.533,5.533,0,0,1-3.163-4.973,6.207,6.207,0,0,1,.4-2.258,5.349,5.349,0,0,1,1.126-1.789,5.013,5.013,0,0,1,1.736-1.17,5.808,5.808,0,0,1,2.237-.417,5.461,5.461,0,0,1,2.05.4,3.823,3.823,0,0,1,1.641,1.238Z" transform="translate(-973.377 -262.489)" fill="#fff"/>
          <path id="Path_511" data-name="Path 511" d="M1182.827,265.391h-3.4V264.05h8.229v1.341h-3.4v9.216h-1.433Z" transform="translate(-1052.937 -263.779)" fill="#fff"/>
          <path id="Path_512" data-name="Path 512" d="M1273.36,264.05h1.431v10.557h-1.431Z" transform="translate(-1131.451 -263.779)" fill="#fff"/>
          <path id="Path_513" data-name="Path 513" d="M1334.631,273.512a5.679,5.679,0,0,1-2.221-.425,5.162,5.162,0,0,1-1.736-1.17,5.415,5.415,0,0,1-1.134-1.759,6.055,6.055,0,0,1,0-4.382,5.4,5.4,0,0,1,1.134-1.759,5.137,5.137,0,0,1,1.736-1.17,6.017,6.017,0,0,1,4.443,0,5.153,5.153,0,0,1,1.736,1.17,5.429,5.429,0,0,1,1.134,1.759,6.073,6.073,0,0,1,0,4.382,5.446,5.446,0,0,1-1.134,1.759,5.178,5.178,0,0,1-1.736,1.17A5.68,5.68,0,0,1,1334.631,273.512Zm0-1.341a3.846,3.846,0,0,0,2.892-1.238,4.015,4.015,0,0,0,.806-1.334,4.864,4.864,0,0,0,0-3.266,4.015,4.015,0,0,0-.806-1.334,3.927,3.927,0,0,0-6.59,1.334,4.865,4.865,0,0,0,0,3.266,3.989,3.989,0,0,0,.806,1.334A3.845,3.845,0,0,0,1334.631,272.171Z" transform="translate(-1178.067 -262.417)" fill="#fff"/>
          <path id="Path_514" data-name="Path 514" d="M1443.23,264.05h1.878l5.815,8.677h.03V264.05h1.431v10.557h-1.819l-5.874-8.679h-.021v8.679h-1.431Z" transform="translate(-1273.441 -263.779)" fill="#fff"/>
        </g>
        <path id="Path_515" data-name="Path 515" d="M420.995,63.933a12.756,12.756,0,0,1-4.981-.952,11.6,11.6,0,0,1-3.9-2.626,12.128,12.128,0,0,1-2.541-3.939,13.6,13.6,0,0,1,0-9.83,12.127,12.127,0,0,1,2.541-3.939,11.631,11.631,0,0,1,3.9-2.626,13.512,13.512,0,0,1,9.964,0,11.641,11.641,0,0,1,3.895,2.626,12.153,12.153,0,0,1,2.541,3.939,13.6,13.6,0,0,1,0,9.83,12.153,12.153,0,0,1-2.541,3.939,11.613,11.613,0,0,1-3.895,2.626A12.771,12.771,0,0,1,420.995,63.933Zm0-3.008a8.6,8.6,0,0,0,6.486-2.775,8.915,8.915,0,0,0,1.805-2.992,10.867,10.867,0,0,0,0-7.322,8.8,8.8,0,0,0-16.577,0,10.867,10.867,0,0,0,0,7.322,8.888,8.888,0,0,0,1.805,2.992A8.6,8.6,0,0,0,421,60.925Z" transform="translate(-341.611 -32.682)" fill="#fff"/>
        <path id="Path_516" data-name="Path 516" d="M688.76,42.67h3.209V66.342H688.76Z" transform="translate(-575.741 -35.692)" fill="#fff"/>
        <path id="Path_517" data-name="Path 517" d="M1105.285,63.933a12.771,12.771,0,0,1-4.983-.952,11.614,11.614,0,0,1-3.895-2.626,12.1,12.1,0,0,1-2.541-3.939,13.6,13.6,0,0,1,0-9.829,12.1,12.1,0,0,1,2.541-3.939,11.642,11.642,0,0,1,3.895-2.626,13.513,13.513,0,0,1,9.964,0,11.642,11.642,0,0,1,3.895,2.626,12.132,12.132,0,0,1,2.542,3.939,13.6,13.6,0,0,1,0,9.83,12.132,12.132,0,0,1-2.542,3.939,11.613,11.613,0,0,1-3.895,2.626,12.763,12.763,0,0,1-4.981.952Zm0-3.008a8.6,8.6,0,0,0,6.486-2.775,8.915,8.915,0,0,0,1.805-2.992,10.867,10.867,0,0,0,0-7.322,8.8,8.8,0,0,0-16.577,0,10.84,10.84,0,0,0,0,7.322,8.864,8.864,0,0,0,1.805,2.992,8.6,8.6,0,0,0,6.486,2.775Z" transform="translate(-913.591 -32.682)" fill="#fff"/>
        <path id="Path_518" data-name="Path 518" d="M1373.92,42.67h4.213l13.033,19.459h.066V42.67h3.217V66.342h-4.079L1377.2,46.881h-.066v19.46h-3.21Z" transform="translate(-1148.449 -35.692)" fill="#fff"/>
        <path id="Path_519" data-name="Path 519" d="M695.6,45.47h4.213a11.3,11.3,0,0,1,1.855.151,4.981,4.981,0,0,1,1.641.551,3.023,3.023,0,0,1,1.149,1.149,4.617,4.617,0,0,1,0,3.913,3.015,3.015,0,0,1-1.149,1.149,4.981,4.981,0,0,1-1.641.551,11.478,11.478,0,0,1-1.855.151h-2.255l7.64,13.24h4.01l-6.719-10.8a6.391,6.391,0,0,0,2.424-.719,6.625,6.625,0,0,0,1.838-1.423,6.236,6.236,0,0,0,1.149-1.906,6.1,6.1,0,0,0,.405-2.2,8.48,8.48,0,0,0-.328-2.3,5.349,5.349,0,0,0-1.188-2.134,6.376,6.376,0,0,0-2.324-1.572,9.778,9.778,0,0,0-3.744-.617H688.76v2.81Z" transform="translate(-575.741 -35.683)" fill="#fff"/>
        <path id="Path_520" data-name="Path 520" d="M945.2,42.67h3.21V66.342H945.2Z" transform="translate(-790.093 -35.692)" fill="#fff"/>
      </g>
    </g>
  </g>
</svg>