<svg width="154" height="35" viewBox="0 0 154 35" fill="none" xmlns="http://www.w3.org/2000/svg">
<g id="Group 1">
<g id="Logo">
<path id="Vector" d="M84.106 15.3342C84.106 16.4793 83.8797 17.5634 83.4317 18.5865C82.5834 20.5544 81.0173 21.8998 78.7248 22.6225C78.0505 22.8489 77.4285 22.9578 76.8586 22.9578C75.0881 22.9578 73.509 22.4962 72.1169 21.5732V21.1988C73.9831 21.2467 75.4883 20.6372 76.6324 19.3658C77.6286 18.2687 78.1245 16.8363 78.1245 15.0686C78.1245 13.301 77.6938 11.886 76.8368 10.902C75.9799 9.91804 74.814 9.42605 73.3437 9.42605H70.8423V31.291C70.8423 31.9397 71.0772 32.4926 71.5514 32.9541C72.0256 33.4157 72.5824 33.6464 73.2306 33.6464H73.7178V34.0208H62.3639V33.6464H62.8511C63.4993 33.6464 64.0517 33.4157 64.5128 32.9541C64.974 32.4926 65.2176 31.9397 65.2393 31.291V10.4013C65.2393 9.77871 65.0044 9.26061 64.5302 8.85135C64.0561 8.44209 63.4949 8.2331 62.8511 8.2331H62.3639V7.85867H74.8358C77.8722 7.85867 80.1604 8.50739 81.709 9.80048C83.3012 11.1719 84.0973 13.0136 84.0973 15.3298" fill="#F5EEEA"/>
<path id="Vector_2" d="M111.503 33.6508C112.151 33.6508 112.647 33.4897 112.995 33.1631C113.57 32.5884 113.865 31.9789 113.892 31.3345V21.804H101.794V31.2997C101.794 31.9484 102.029 32.5013 102.503 32.9629C102.977 33.4244 103.534 33.6551 104.182 33.6551H104.63L104.669 34.0295H93.3153V33.6551H93.8025C94.4507 33.6551 95.0032 33.4244 95.4643 32.9629C95.9254 32.5013 96.1647 31.9484 96.1908 31.2997V10.5885C96.1647 9.9398 95.9211 9.38687 95.4643 8.92536C95.0032 8.46386 94.4507 8.2331 93.8025 8.2331H93.3153V7.85867H104.669L104.63 8.2331H104.182C103.534 8.2331 102.973 8.46386 102.503 8.92536C102.029 9.38687 101.794 9.9398 101.794 10.5885V20.1931H113.892V10.5885C113.865 9.9398 113.626 9.38687 113.165 8.92536C112.704 8.46386 112.151 8.2331 111.503 8.2331H111.02V7.85867H122.374V8.2331H121.887C121.239 8.2331 120.678 8.46386 120.208 8.92536C119.734 9.38687 119.499 9.9398 119.499 10.5885V31.2953C119.499 31.9441 119.738 32.497 120.208 32.9585C120.682 33.42 121.243 33.6508 121.887 33.6508H122.374V34.0252H111.02V33.6508H111.503Z" fill="#F5EEEA"/>
<path id="Vector_3" d="M133.424 33.6508C134.072 33.6508 134.624 33.42 135.085 32.9585C135.547 32.497 135.786 31.9441 135.812 31.2953V10.5885C135.786 9.9398 135.542 9.38687 135.085 8.92536C134.624 8.46386 134.072 8.2331 133.424 8.2331H132.937V7.85867H144.29L144.251 8.2331H143.803C143.155 8.2331 142.594 8.46386 142.124 8.92536C141.65 9.38687 141.415 9.9398 141.415 10.5885V32.4143H146.305C148.123 32.4143 149.645 31.8918 150.881 30.8469C152.112 29.802 153.03 28.3173 153.626 26.3973H154L152.282 34.0208H132.937V33.6464H133.424V33.6508Z" fill="#F5EEEA"/>
<path id="Vector_4" d="M32.3261 16.7622L25.2701 15.7609L16.3175 16.7971V17.4458L23.256 16.6795L23.5953 16.6839C24.0477 16.6839 24.4392 16.8319 24.7698 17.1236C25.1004 17.4153 25.2658 17.7854 25.2658 18.2295V18.2425L32.3217 19.0959V16.7622H32.3261Z" fill="#F5EEEA"/>
<path id="Vector_5" d="M16.3174 11.8598V12.539L23.356 11.5115H23.6474C24.0825 11.5115 24.4653 11.6552 24.7828 11.9382C25.1004 12.2212 25.2614 12.5782 25.2614 13.0049V13.0136H25.2701L32.3217 14.163V11.7989L25.2657 10.4971L16.3131 11.8598H16.3174Z" fill="#F5EEEA"/>
<path id="Vector_6" d="M16.3175 6.94871V7.64096L23.443 6.36529H23.4387L23.7432 6.374C24.1478 6.374 24.5001 6.50462 24.7959 6.76584C25.0917 7.02707 25.2397 7.35797 25.2397 7.75416V7.76287L25.2701 7.74981V7.75852L32.3261 9.17787V6.87904L25.2701 5.29425L16.3175 6.94871Z" fill="#F5EEEA"/>
<path id="Vector_7" d="M25.2701 0L16.3175 2.06372V2.75597L23.5344 1.132L23.8258 1.13635C24.213 1.13635 24.548 1.26261 24.8307 1.51078C25.1135 1.75895 25.2527 2.07242 25.2527 2.45121V2.45991L25.2745 2.45121V2.46427L32.3304 4.28417V1.95487L25.2701 0Z" fill="#F5EEEA"/>
<path id="Vector_8" d="M25.2701 21.0029L16.3175 21.7561V22.4483L23.43 21.891H23.5866C24.039 21.891 24.4305 22.0391 24.7611 22.3308C25.0917 22.6225 25.2571 22.9926 25.2571 23.4367V23.4671L25.2658 23.4367V23.4671L32.3217 24.0375V21.7256L25.2658 20.9985L25.2701 21.0029Z" fill="#F5EEEA"/>
<path id="Vector_9" d="M25.2701 26.2014L16.3175 26.6759V27.3551L23.4126 27.0199V27.0329H23.5866C24.039 27.0329 24.4305 27.1897 24.7611 27.4988C25.0917 27.8079 25.2571 28.1954 25.2571 28.6613V28.6743V28.7135L25.2701 28.6961V28.7135L32.3261 29.027V26.6716L25.2701 26.2014Z" fill="#F5EEEA"/>
<path id="Vector_10" d="M25.2701 31.4695L16.3175 31.6262V32.2749L23.2647 32.1922H23.3908C23.8998 32.1922 24.3392 32.3664 24.7133 32.7147C25.07 33.0499 25.2571 33.4635 25.2701 33.9642V34.0861L32.3261 34.0687V31.6306L25.2701 31.4695Z" fill="#F5EEEA"/>
<path id="Vector_11" d="M42.8708 17.2325L34.8665 18.0727V18.7215L40.861 18.1293H41.1742C41.631 18.1293 42.0312 18.2774 42.3662 18.5778C42.7012 18.8738 42.8708 19.2483 42.8708 19.6967V19.7098L49.1133 20.5936V18.2904L42.8708 17.2325Z" fill="#F5EEEA"/>
<path id="Vector_12" d="M42.8708 12.4563L34.8665 13.5534V14.2326C34.91 14.2283 34.9579 14.2196 35.0057 14.2152C35.1319 14.1978 35.2537 14.1804 35.3798 14.1673C35.5669 14.1412 35.7539 14.1194 35.941 14.0933C36.1716 14.0628 36.4065 14.0324 36.637 14.0019C36.898 13.967 37.1547 13.9322 37.4157 13.9017C37.6854 13.8669 37.9551 13.8321 38.2248 13.7972L39.0122 13.6928C39.2515 13.6623 39.4864 13.6318 39.7256 13.6013C39.9214 13.5752 40.1172 13.5491 40.3129 13.523C40.4478 13.5055 40.587 13.4881 40.7218 13.4707C40.8306 13.4576 40.9306 13.4489 41.0394 13.4489C41.1046 13.4489 41.1699 13.4489 41.2351 13.4489C41.6789 13.4489 42.0573 13.5926 42.3836 13.88C42.7055 14.1673 42.8665 14.5243 42.8665 14.9597V14.9684L49.1089 16.1788V13.7972L42.8665 12.4606L42.8708 12.4563Z" fill="#F5EEEA"/>
<path id="Vector_13" d="M42.8708 7.75415L34.8665 9.07336V9.76562L41.0481 8.78601H41.3222C41.7398 8.78601 42.0965 8.92533 42.401 9.19091C42.7055 9.46085 42.8578 9.7961 42.8578 10.2054V10.2141H42.8665L49.1089 11.6421V9.29541L42.8665 7.75415H42.8708Z" fill="#F5EEEA"/>
<path id="Vector_14" d="M42.8708 21.9912L34.8665 22.5877V23.28L41.022 22.8576H41.1786C41.6354 22.8576 42.0312 23.0057 42.3662 23.3017C42.7012 23.5978 42.8665 23.9679 42.8665 24.4119V24.4511L49.1089 25.0389V22.7227L42.8665 21.9825L42.8708 21.9912Z" fill="#F5EEEA"/>
<path id="Vector_15" d="M42.8708 26.7151L34.8665 27.0983V27.7775L41.0133 27.525L41.183 27.538C41.6397 27.538 42.0356 27.6948 42.3705 28.0039C42.7012 28.313 42.8708 28.7048 42.8708 29.1707V29.2273H42.8839L49.1089 29.5408V27.181L42.8665 26.7151H42.8708Z" fill="#F5EEEA"/>
<path id="Vector_16" d="M42.8708 31.4956L34.8665 31.6523V32.3011L40.9263 32.2183L41.0481 32.2227C41.544 32.2227 41.9747 32.3925 42.3357 32.7321C42.6751 33.0499 42.8534 33.4418 42.8752 33.912V34.0687H49.1176V31.6523L42.8752 31.4956H42.8708Z" fill="#F5EEEA"/>
<path id="Vector_17" d="M14.0119 19.897V17.5111L7.79985 16.7666L0.00436401 17.7723V18.4254L5.78573 17.7114H6.12504C6.57746 17.7114 6.96897 17.8551 7.29958 18.1424C7.63019 18.4298 7.7955 18.7911 7.7955 19.2265V19.2396L14.0075 19.8927L14.0119 19.897Z" fill="#F5EEEA"/>
<path id="Vector_18" d="M5.95102 22.6529H6.12503C6.57744 22.6529 6.96896 22.7966 7.29957 23.084C7.63018 23.3713 7.79549 23.7327 7.79549 24.1681V24.1985L14.0075 24.6078V22.2916L7.79549 21.7299L0 22.457V23.2102L5.94667 22.6486L5.95102 22.6529Z" fill="#F5EEEA"/>
<path id="Vector_19" d="M5.95103 27.4727H6.12504C6.57746 27.4727 6.96897 27.6251 7.29958 27.9342C7.6302 28.2433 7.7955 28.6308 7.7955 29.0967V29.1489L14.0075 29.384V26.9938L7.7955 26.6411L0.00436401 27.107V27.7862L5.95103 27.4727Z" fill="#F5EEEA"/>
<path id="Vector_20" d="M5.96408 32.3403H6.13809C6.59051 32.3403 6.98202 32.497 7.31263 32.8148C7.64325 33.1327 7.80855 33.5332 7.80855 34.0121V34.0687H14.0075V31.7351L7.7955 31.6175L0.00436401 31.7743V32.423L5.96408 32.3446V32.3403Z" fill="#F5EEEA"/>
</g>
</g>
</svg>
