<svg width="132" height="34" viewBox="0 0 132 34" fill="none" xmlns="http://www.w3.org/2000/svg">
<path d="M113.494 11.984C113.494 15.5724 111.834 18.805 109.224 20.8809V5.04447H92.9722C95.0481 2.31609 98.34 0.566376 102.047 0.566376C108.364 0.566376 113.494 5.69691 113.494 12.0137" fill="#79C0B2"/>
<path d="M102.047 23.4017C95.7301 23.4017 90.5996 18.2712 90.5996 11.9544C96.9164 11.9544 102.047 17.0849 102.047 23.4017Z" fill="#79C0B2"/>
<path d="M107.77 17.7966V21.8596C106.495 22.601 105.042 23.1051 103.5 23.2831V10.5902H90.6885C90.8664 9.04805 91.3409 7.62455 92.0823 6.31968H96.3232C102.64 6.31968 107.77 11.4502 107.77 17.767" fill="#79C0B2"/>
<path d="M0.0297852 16.6401H3.44025C3.44025 17.7373 3.94441 18.716 4.98238 19.5167C6.02035 20.3174 7.35488 20.7326 8.95632 20.7326C10.5578 20.7326 12.0406 20.4361 12.9006 19.8133C13.7606 19.1905 14.1758 18.3601 14.1758 17.3222C14.1758 15.6614 12.8709 14.5641 10.2612 14.06L5.87207 13.2593C4.09269 12.933 2.75816 12.2509 1.83882 11.213C0.949129 10.175 0.474629 8.84047 0.474629 7.23903C0.474629 5.6376 1.21604 3.7396 2.69885 2.46438C4.21132 1.1595 6.19829 0.507065 8.65975 0.507065C11.1212 0.507065 13.5234 1.18916 15.0358 2.583C16.5483 3.94719 17.2897 5.72656 17.2897 7.83216H13.8793C13.8793 6.73488 13.4048 5.75622 12.4558 4.9555C11.5068 4.15478 10.2315 3.7396 8.68941 3.7396C7.14729 3.7396 6.05 4.06581 5.21963 4.71825C4.38925 5.37069 3.97407 6.20106 3.97407 7.15006C3.97407 8.7515 5.101 9.78947 7.38454 10.2343L10.9729 10.8868C13.2861 11.3019 14.9469 12.0137 16.0442 13.022C17.1118 14.0303 17.6456 15.4242 17.6456 17.2332C17.6456 19.0422 16.9042 20.7919 15.3917 22.0375C13.8793 23.2831 11.7737 23.9058 9.01563 23.9058C6.2576 23.9058 4.06304 23.2238 2.4616 21.8299C0.86016 20.4361 0.0594415 18.6863 0.0594415 16.5808" fill="#20615A"/>
<path d="M71.3231 23.639V0.833305H81.4062C83.2746 0.833305 84.8167 1.45609 86.0623 2.67199C87.3078 3.8879 87.9306 5.40037 87.9306 7.17974C87.9306 8.95912 87.5154 9.84881 86.6851 10.8868C86.3588 11.302 85.9436 11.6875 85.4691 12.073V12.2213C86.003 12.5179 86.4478 12.9034 86.8333 13.4076C87.7527 14.5048 88.2272 15.8097 88.2272 17.2925C88.2272 18.7753 87.6044 20.614 86.3885 21.8299C85.1726 23.0458 83.6305 23.639 81.8214 23.639H71.2935H71.3231ZM74.7336 10.7682H81.258C82.1773 10.7682 82.9484 10.4419 83.5711 9.78949C84.1939 9.13706 84.5201 8.33634 84.5201 7.35768C84.5201 6.37902 84.1939 5.57831 83.5711 4.92587C82.9484 4.27343 82.1773 3.94721 81.258 3.94721H74.7336V10.7978V10.7682ZM74.7336 20.5547H81.5842C82.5035 20.5547 83.2746 20.2285 83.8974 19.5761C84.5201 18.9236 84.8464 18.1229 84.8464 17.1442C84.8464 16.1656 84.5201 15.3649 83.8974 14.7124C83.2746 14.06 82.5035 13.7338 81.5842 13.7338H74.7336V20.5844V20.5547Z" fill="#20615A"/>
<path d="M62.4563 15.4241C63.9094 15.2166 65.155 14.5641 66.1929 13.4668C67.4682 12.1026 68.0909 10.3529 68.0909 8.18802C68.0909 6.02312 67.4682 4.24374 66.1929 2.90921C64.9177 1.54502 63.3459 0.86293 61.4183 0.86293H51.1572V23.6389H54.5677V15.5131H58.6306C60.8845 20.7326 64.0873 23.6389 64.0873 23.6389H68.7137C68.7137 23.6389 64.8584 20.4064 62.4266 15.4241M54.5677 12.2509V4.09546H61.2404C62.1597 4.09546 62.9901 4.48099 63.6425 5.2224C64.3246 5.99346 64.6508 6.97212 64.6508 8.15837C64.6508 9.34462 64.3246 10.3233 63.6425 11.0943C62.9604 11.8654 62.1597 12.2213 61.2404 12.2213H54.5677V12.2509Z" fill="#20615A"/>
<path d="M121.442 23.639V4.09549H114.266V0.833305H132V4.09549H124.853V23.639H121.442Z" fill="#20615A"/>
<path d="M45.2256 0.833305C45.2256 0.833305 45.1069 9.01843 41.5482 18.7457H40.8957L36.1804 0.833305H31.9396L27.2242 18.7457H26.5718C23.0427 9.04809 22.8944 0.833305 22.8944 0.833305H19.1577C19.1577 0.833305 19.3357 11.9544 24.8517 23.6093H29.3298L33.7189 6.52731H34.3714L38.7605 23.6093H43.2386C48.7843 11.9544 48.9622 0.833305 48.9622 0.833305H45.2256Z" fill="#20615A"/>
<path d="M0.0296562 32.1502H0.652438C0.652438 32.3578 0.741406 32.5358 0.949 32.6841C1.12694 32.8323 1.39384 32.9213 1.69041 32.9213C1.98697 32.9213 2.25388 32.862 2.43181 32.7434C2.58009 32.6247 2.66906 32.4765 2.66906 32.2689C2.66906 31.9723 2.43181 31.7647 1.92766 31.6757L1.09728 31.5275C0.771063 31.4682 0.504156 31.3495 0.355875 31.1419C0.177938 30.9343 0.118625 30.6971 0.118625 30.4005C0.118625 30.104 0.266906 29.7481 0.533813 29.5108C0.800719 29.2736 1.18625 29.155 1.63109 29.155C2.07594 29.155 2.52078 29.2736 2.81734 29.5405C3.08425 29.8074 3.23253 30.1336 3.23253 30.5192H2.60975C2.60975 30.3116 2.52078 30.1336 2.34284 29.9853C2.16491 29.8371 1.92766 29.7481 1.63109 29.7481C1.33453 29.7481 1.12694 29.8074 0.978656 29.926C0.830375 30.0447 0.741406 30.1929 0.741406 30.3709C0.741406 30.6674 0.949 30.875 1.36419 30.9343L2.01662 31.053C2.43181 31.1419 2.75803 31.2606 2.96562 31.4385C3.17322 31.6164 3.26219 31.8833 3.26219 32.2096C3.26219 32.5358 3.11391 32.862 2.847 33.0993C2.58009 33.3365 2.16491 33.4551 1.66075 33.4551C1.15659 33.4551 0.741406 33.3365 0.444844 33.0696C0.148281 32.8027 0 32.4765 0 32.0909" fill="#20615A"/>
<path d="M4.47803 31.7648V29.2143H5.10081V31.7648C5.10081 32.1206 5.18978 32.3876 5.39737 32.5951C5.60496 32.8027 5.84221 32.9214 6.16843 32.9214C6.49465 32.9214 6.7319 32.8027 6.9395 32.5951C7.14709 32.3876 7.23606 32.091 7.23606 31.7648V29.2143H7.85884V31.7648C7.85884 32.2986 7.71056 32.7138 7.38434 33.04C7.05812 33.3662 6.67259 33.5145 6.16843 33.5145C5.66428 33.5145 5.24909 33.3662 4.95253 33.04C4.62631 32.7138 4.47803 32.2986 4.47803 31.7648Z" fill="#20615A"/>
<path d="M17.9717 33.4552V29.2143H20.7594V29.8075H18.5945V31.0234H20.6407V31.6461H18.5945V32.8324H20.7594V33.4552H17.9717Z" fill="#20615A"/>
<path d="M23.0724 33.4552V31.9427L21.5303 29.2143H22.2124L23.3393 31.1716H23.4579L24.5256 29.2143H25.2373L23.6952 31.9427V33.4552H23.0724Z" fill="#20615A"/>
<path d="M28.1735 31.3792L28.3811 31.2013L28.1438 30.9641C28.0252 30.8454 27.9362 30.7268 27.8769 30.6082C27.8176 30.4896 27.8176 30.3413 27.8176 30.1633C27.8176 29.8668 27.9362 29.6295 28.1438 29.4219C28.3514 29.2143 28.648 29.1254 28.9742 29.1254C29.3004 29.1254 29.5673 29.244 29.8046 29.4516C30.0121 29.6592 30.1308 29.8964 30.1308 30.193C30.1308 30.4896 29.9528 30.8158 29.6266 31.0827L29.3004 31.3199L30.1604 32.2393C30.1901 32.1503 30.2494 32.0613 30.2494 32.002C30.3087 31.7944 30.368 31.6165 30.368 31.4682H30.9908C30.9908 31.7648 30.9315 32.0613 30.7832 32.3579C30.7239 32.5062 30.6349 32.5951 30.5756 32.6841L31.3467 33.4848H30.5163L30.1604 33.0993C30.0418 33.1883 29.9528 33.2772 29.8342 33.3366C29.5673 33.4848 29.2707 33.5738 29.0038 33.5738C28.5886 33.5738 28.2328 33.4552 27.9955 33.2476C27.7583 33.04 27.6396 32.7731 27.6396 32.4469C27.6396 32.1206 27.699 32.0317 27.7879 31.8834C27.8769 31.7351 28.0252 31.5868 28.2328 31.4386M29.7452 32.6841L28.7666 31.6165L28.5886 31.7648C28.47 31.8537 28.3811 31.9427 28.3217 32.0317C28.2624 32.1206 28.2328 32.2393 28.2328 32.3876C28.2328 32.5358 28.2921 32.6841 28.4404 32.7731C28.559 32.8917 28.7369 32.951 28.9742 32.951C29.3301 32.951 29.5673 32.8621 29.7749 32.6841M28.9149 30.9047L29.1521 30.7268C29.2707 30.6378 29.3597 30.5489 29.419 30.4896C29.4783 30.4302 29.508 30.3413 29.508 30.2226C29.508 30.104 29.4487 29.9557 29.3597 29.8371C29.2707 29.7481 29.1521 29.6888 28.9742 29.6888C28.7962 29.6888 28.6776 29.7481 28.5886 29.8371C28.4997 29.9557 28.4404 30.0744 28.4404 30.193C28.4404 30.3116 28.4997 30.4599 28.648 30.6082L28.8852 30.8751L28.9149 30.9047Z" fill="#20615A"/>
<path d="M39.9468 33.4552V29.2143H40.5992V30.9937H42.7345V29.2143H43.3869V33.4552H42.7345V31.6165H40.5992V33.4552H39.9468Z" fill="#20615A"/>
<path d="M45.3742 29.2143H44.7515V33.4552H45.3742V29.2143Z" fill="#20615A"/>
<path d="M47.7466 33.4552V29.8075H46.4121V29.2143H49.704V29.8075H48.3694V33.4552H47.7466Z" fill="#20615A"/>
<path d="M50.7417 33.4552V29.2143H53.5294V29.8075H51.3645V31.0234H53.4108V31.6461H51.3645V32.8324H53.5294V33.4552H50.7417Z" fill="#20615A"/>
<path d="M63.9091 32.8917C63.5236 33.3069 63.0491 33.5145 62.4559 33.5145C61.8628 33.5145 61.418 33.3069 61.0028 32.8917C60.6173 32.4765 60.4097 31.9724 60.4097 31.3199C60.4097 30.6675 60.6173 30.1633 61.0028 29.7481C61.3883 29.333 61.8628 29.1254 62.4559 29.1254C63.0491 29.1254 63.4939 29.333 63.9091 29.7481C64.2946 30.1633 64.5022 30.6675 64.5022 31.3199C64.5022 31.9724 64.2946 32.4765 63.9091 32.8917ZM63.4939 30.193C63.227 29.8964 62.9008 29.7481 62.4856 29.7481C62.0704 29.7481 61.7442 29.8964 61.4773 30.193C61.2104 30.4896 61.0918 30.8751 61.0918 31.3496C61.0918 31.8241 61.2104 32.2096 61.4773 32.5062C61.7442 32.8027 62.0704 32.9214 62.4856 32.9214C62.9008 32.9214 63.227 32.7731 63.4939 32.5062C63.7608 32.2096 63.8794 31.8241 63.8794 31.3496C63.8794 30.8751 63.7608 30.4896 63.4939 30.193Z" fill="#20615A"/>
<path d="M68.7727 32.002H69.4251C69.3955 32.18 69.3065 32.3579 69.2175 32.5358C69.1285 32.7138 69.0099 32.8621 68.832 33.0103C68.6837 33.1586 68.4761 33.2772 68.2685 33.3662C68.0313 33.4552 67.794 33.5145 67.4975 33.5145C66.934 33.5145 66.4595 33.3069 66.0443 32.8917C65.6588 32.4765 65.4512 31.9724 65.4512 31.3199C65.4512 30.6675 65.6588 30.1633 66.0443 29.7481C66.4298 29.333 66.9043 29.1254 67.4975 29.1254C68.0906 29.1254 68.4168 29.2736 68.743 29.5702C69.0692 29.8668 69.3065 30.2226 69.3955 30.6082H68.743C68.6244 30.3116 68.4761 30.104 68.2389 29.9557C68.0313 29.8075 67.7644 29.7185 67.4975 29.7185C67.0823 29.7185 66.756 29.8668 66.4891 30.1337C66.2222 30.4302 66.1036 30.8158 66.1036 31.2903C66.1036 31.7648 66.2222 32.1503 66.4891 32.4469C66.756 32.7434 67.0823 32.8621 67.4975 32.8621C67.9126 32.8621 68.0906 32.7731 68.2982 32.5951C68.5058 32.4172 68.654 32.2096 68.743 31.9427" fill="#20615A"/>
<path d="M70.582 33.4552V29.2143H71.2048V31.142L72.8359 29.2143H73.6366L71.8572 31.2903L73.7552 33.4552H72.9545L71.2048 31.4386V33.4552H70.582Z" fill="#20615A"/>
<path d="M76.4833 33.4552V29.2143H78.3516C78.7075 29.2143 78.9744 29.333 79.2116 29.5702C79.4489 29.8075 79.5675 30.0744 79.5675 30.4006C79.5675 30.7268 79.4786 30.9047 79.3303 31.0827C79.271 31.1716 79.182 31.231 79.093 31.2903C79.182 31.3792 79.271 31.4386 79.3599 31.5275C79.5379 31.7351 79.6268 31.9724 79.6268 32.2393C79.6268 32.5062 79.5082 32.8621 79.271 33.0696C79.0337 33.3069 78.7668 33.3959 78.4109 33.3959H76.4536L76.4833 33.4552ZM77.1061 31.053H78.322C78.4999 31.053 78.6482 30.9937 78.7371 30.8751C78.8558 30.7565 78.9151 30.6082 78.9151 30.4302C78.9151 30.2523 78.8558 30.104 78.7371 29.9854C78.6185 29.8668 78.4702 29.8075 78.322 29.8075H77.1061V31.0827V31.053ZM77.1061 32.8621H78.3813C78.5592 32.8621 78.7075 32.8027 78.8261 32.6841C78.9447 32.5655 79.0041 32.4172 79.0041 32.2393C79.0041 32.0613 78.9447 31.9131 78.8261 31.7944C78.7075 31.6758 78.5592 31.6165 78.3813 31.6165H77.1061V32.8917V32.8621Z" fill="#20615A"/>
<path d="M84.1645 32.8917C83.7789 33.3069 83.3044 33.5145 82.7113 33.5145C82.1182 33.5145 81.6734 33.3069 81.2582 32.8917C80.8726 32.4765 80.665 31.9724 80.665 31.3199C80.665 30.6675 80.8726 30.1633 81.2582 29.7481C81.6437 29.333 82.1182 29.1254 82.7113 29.1254C83.3044 29.1254 83.7493 29.333 84.1645 29.7481C84.55 30.1633 84.7576 30.6675 84.7576 31.3199C84.7576 31.9724 84.55 32.4765 84.1645 32.8917ZM83.7196 30.193C83.4527 29.8964 83.1265 29.7481 82.7113 29.7481C82.2961 29.7481 81.9699 29.8964 81.703 30.193C81.4361 30.4896 81.3175 30.8751 81.3175 31.3496C81.3175 31.8241 81.4361 32.2096 81.703 32.5062C81.9699 32.8027 82.2961 32.9214 82.7113 32.9214C83.1265 32.9214 83.4527 32.7731 83.7196 32.5062C83.9865 32.2096 84.1052 31.8241 84.1052 31.3496C84.1052 30.8751 83.9865 30.4896 83.7196 30.193Z" fill="#20615A"/>
<path d="M85.3506 33.4552L86.8927 29.2143H87.8714L89.4135 33.4552H88.7314L88.3755 32.4469H86.4479L86.092 33.4552H85.4099H85.3506ZM86.6258 31.8834H88.1383L87.4562 29.9557H87.3376L86.6555 31.8834H86.6258Z" fill="#20615A"/>
<path d="M94.6924 33.4552V29.2143H96.1752C96.7387 29.2143 97.2428 29.4219 97.6283 29.8075C98.0139 30.193 98.2215 30.7268 98.2215 31.3199C98.2215 31.9131 98.0139 32.4469 97.6283 32.8324C97.2428 33.2179 96.7683 33.4255 96.1752 33.4255H94.6924V33.4552ZM95.3448 32.8324H96.2049C96.5904 32.8324 96.9463 32.6841 97.2132 32.4172C97.4801 32.1503 97.5987 31.7648 97.5987 31.3199C97.5987 30.8751 97.4801 30.5192 97.2132 30.2226C96.9463 29.9557 96.62 29.8075 96.2049 29.8075H95.3448V32.8324Z" fill="#20615A"/>
<path d="M104.568 32.8917C104.182 33.3069 103.708 33.5145 103.115 33.5145C102.522 33.5145 102.077 33.3069 101.661 32.8917C101.276 32.4765 101.068 31.9724 101.068 31.3199C101.068 30.6675 101.276 30.1633 101.661 29.7481C102.047 29.333 102.522 29.1254 103.115 29.1254C103.708 29.1254 104.153 29.333 104.568 29.7481C104.953 30.1633 105.161 30.6675 105.161 31.3199C105.161 31.9724 104.953 32.4765 104.568 32.8917ZM104.123 30.193C103.856 29.8964 103.53 29.7481 103.115 29.7481C102.699 29.7481 102.373 29.8964 102.106 30.193C101.839 30.4896 101.721 30.8751 101.721 31.3496C101.721 31.8241 101.839 32.2096 102.106 32.5062C102.373 32.8027 102.699 32.9214 103.115 32.9214C103.53 32.9214 103.856 32.7731 104.123 32.5062C104.39 32.2096 104.508 31.8241 104.508 31.3496C104.508 30.8751 104.39 30.4896 104.123 30.193Z" fill="#20615A"/>
<path d="M106.347 33.4552V29.2143H109.046V29.8075H106.97V31.0234H108.927V31.6461H106.97V33.4552H106.347Z" fill="#20615A"/>
<path d="M112.634 33.4552V29.8075H111.3V29.2143H114.592V29.8075H113.257V33.4552H112.634Z" fill="#20615A"/>
<path d="M119.574 33.4552L121.116 29.2143H122.095L123.637 33.4552H122.955L122.599 32.4469H120.672L120.316 33.4552H119.634H119.574ZM120.849 31.8834H122.362L121.68 29.9557H121.561L120.879 31.8834H120.849Z" fill="#20615A"/>
<path d="M124.526 33.4552V29.2143H126.009C126.573 29.2143 127.077 29.4219 127.462 29.8075C127.848 30.193 128.055 30.7268 128.055 31.3199C128.055 31.9131 127.848 32.4469 127.462 32.8324C127.077 33.2179 126.602 33.4255 126.009 33.4255H124.526V33.4552ZM125.179 32.8324H126.039C126.424 32.8324 126.78 32.6841 127.047 32.4172C127.314 32.1503 127.433 31.7648 127.433 31.3199C127.433 30.8751 127.314 30.5192 127.047 30.2226C126.78 29.9557 126.454 29.8075 126.039 29.8075H125.179V32.8324Z" fill="#20615A"/>
<path d="M129.242 33.4552V29.2143H132V29.8075H129.865V31.0234H131.882V31.6461H129.865V32.8324H132V33.4552H129.242Z" fill="#20615A"/>
<path d="M117.735 31.9131C118.002 31.8834 118.24 31.7648 118.418 31.5572C118.655 31.2903 118.773 30.9641 118.773 30.5785C118.773 30.193 118.655 29.8371 118.418 29.5999C118.18 29.333 117.884 29.2143 117.528 29.2143H115.63V33.4552H116.253V31.9427H116.994C117.409 32.9214 118.002 33.4552 118.002 33.4552H118.862C118.862 33.4552 118.151 32.8621 117.706 31.9131M116.253 31.3199V29.8075H117.498C117.676 29.8075 117.824 29.8668 117.943 30.0151C118.062 30.1633 118.121 30.3413 118.121 30.5489C118.121 30.7565 118.062 30.9641 117.943 31.0827C117.824 31.231 117.676 31.2903 117.498 31.2903H116.253V31.3199Z" fill="#20615A"/>
<path d="M92.4088 31.9131C92.6757 31.8834 92.913 31.7648 93.0909 31.5572C93.3282 31.2903 93.4468 30.9641 93.4468 30.5785C93.4468 30.193 93.3282 29.8371 93.0909 29.5999C92.8537 29.333 92.5571 29.2143 92.2012 29.2143H90.3032V33.4552H90.926V31.9427H91.6674C92.0826 32.9214 92.6757 33.4552 92.6757 33.4552H93.5358C93.5358 33.4552 92.824 32.8621 92.3792 31.9131M90.9557 31.3199V29.8075H92.2012C92.3792 29.8075 92.5274 29.8668 92.6461 30.0151C92.7647 30.1633 92.824 30.3413 92.824 30.5489C92.824 30.7565 92.7647 30.9641 92.6461 31.0827C92.5274 31.231 92.3792 31.2903 92.2012 31.2903H90.9557V31.3199Z" fill="#20615A"/>
<path d="M58.3336 31.9131C58.6005 31.8834 58.8378 31.7648 59.0157 31.5572C59.253 31.2903 59.3716 30.9641 59.3716 30.5785C59.3716 30.193 59.253 29.8371 59.0157 29.5999C58.7785 29.333 58.4819 29.2143 58.126 29.2143H56.228V33.4552H56.8508V31.9427H57.5922C58.0074 32.9214 58.6005 33.4552 58.6005 33.4552H59.4606C59.4606 33.4552 58.7488 32.8621 58.304 31.9131M56.8805 31.3199V29.8075H58.126C58.304 29.8075 58.4522 29.8668 58.5709 30.0151C58.6895 30.1633 58.7488 30.3413 58.7488 30.5489C58.7488 30.7565 58.6895 30.9641 58.5709 31.0827C58.4522 31.231 58.304 31.2903 58.126 31.2903H56.8805V31.3199Z" fill="#20615A"/>
<path d="M15.6881 31.9131C15.955 31.8834 16.1923 31.7648 16.3702 31.5572C16.6075 31.2903 16.7261 30.9641 16.7261 30.5785C16.7261 30.193 16.6075 29.8371 16.3702 29.5999C16.133 29.333 15.8364 29.2143 15.4805 29.2143H13.5825V33.4552H14.2053V31.9427H14.9467C15.3619 32.9214 15.955 33.4552 15.955 33.4552H16.8151C16.8151 33.4552 16.1033 32.8621 15.6585 31.9131M14.2053 31.3199V29.8075H15.4509C15.6288 29.8075 15.7771 29.8668 15.8957 30.0151C16.0143 30.1633 16.0736 30.3413 16.0736 30.5489C16.0736 30.7565 16.0143 30.9641 15.8957 31.0827C15.7771 31.231 15.6288 31.2903 15.4509 31.2903H14.2053V31.3199Z" fill="#20615A"/>
<path d="M11.299 31.9131C11.5659 31.8834 11.8031 31.7648 11.981 31.5572C12.2183 31.2903 12.3369 30.9641 12.3369 30.5785C12.3369 30.193 12.2183 29.8371 11.981 29.5999C11.7438 29.333 11.4472 29.2143 11.0914 29.2143H9.19336V33.4552H9.81614V31.9427H10.5575C10.9727 32.9214 11.5659 33.4552 11.5659 33.4552H12.4259C12.4259 33.4552 11.7141 32.8621 11.2693 31.9131M9.81614 31.3199V29.8075H11.0617C11.2396 29.8075 11.3879 29.8668 11.5065 30.0151C11.6252 30.1633 11.6845 30.3413 11.6845 30.5489C11.6845 30.7565 11.6252 30.9641 11.5065 31.0827C11.3879 31.231 11.2396 31.2903 11.0617 31.2903H9.81614V31.3199Z" fill="#20615A"/>
<path d="M38.2865 29.2143C38.2865 29.2143 38.2865 30.7268 37.6044 32.5358H37.4858L36.5961 29.2143H35.7954L34.9057 32.5358H34.787C34.1346 30.7268 34.1049 29.2143 34.1049 29.2143H33.4229C33.4229 29.2143 33.4525 31.2903 34.4905 33.4552H35.3208L36.1512 30.282H36.2699L37.1002 33.4552H37.9306C38.9686 31.2903 38.9982 29.2143 38.9982 29.2143H38.3161H38.2865Z" fill="#20615A"/>
</svg>
